G04 PROTEUS GERBER X2 FILE*
%TF.GenerationSoftware,Labcenter,Proteus,8.6-SP2-Build23525*%
%TF.CreationDate,2018-01-19T18:02:44+00:00*%
%TF.FileFunction,Plated,0,2,PTH*%
%TF.FilePolarity,Positive*%
%TF.Part,Single*%
%FSLAX45Y45*%
%MOMM*%
G01*
%TA.AperFunction,ComponentDrill*%
%ADD16C,0.762000*%
%TA.AperFunction,OtherDrill,Unknown*%
%ADD17C,1.270000*%
%TA.AperFunction,ComponentDrill*%
%ADD18C,1.016000*%
%TD.AperFunction*%
D16*
X+4327900Y+6151900D03*
X+4327900Y+5897900D03*
X+737900Y+6533900D03*
X+737900Y+5517900D03*
X+1297900Y+6533900D03*
X+1297900Y+5517900D03*
X+1857900Y+6533900D03*
X+1857900Y+5517900D03*
X+2417900Y+6533900D03*
X+2417900Y+5517900D03*
X+2977900Y+6533900D03*
X+2977900Y+5517900D03*
X+5887900Y+6151900D03*
X+5887900Y+5897900D03*
X+5367900Y+6151900D03*
X+5367900Y+5897900D03*
X+4847900Y+6151900D03*
X+4847900Y+5897900D03*
X+3807900Y+6151900D03*
X+3807900Y+5897900D03*
X-3472100Y+6267900D03*
X-4488100Y+6267900D03*
X-2092100Y+7187900D03*
X-2346100Y+7187900D03*
X-6272100Y+7327900D03*
X-5764100Y+7327900D03*
X-6272100Y+6977900D03*
X-5764100Y+6977900D03*
X-5242100Y+7177900D03*
X-4734100Y+7177900D03*
X-3042100Y+4627900D03*
X-2534100Y+4627900D03*
X-3042100Y+4927900D03*
X-2534100Y+4927900D03*
X-3846100Y+4777900D03*
X-3592100Y+4777900D03*
X-3338100Y+4777900D03*
D17*
X-152100Y+6017900D03*
D16*
X-542100Y+6747900D03*
X-796100Y+6747900D03*
X-1050100Y+6747900D03*
X-1304100Y+6747900D03*
X-1558100Y+6747900D03*
X-1812100Y+6747900D03*
X-2066100Y+6747900D03*
X-2320100Y+6747900D03*
X-2574100Y+6747900D03*
X-2828100Y+6747900D03*
X-3082100Y+6747900D03*
X-3336100Y+6747900D03*
X-3590100Y+6747900D03*
X-3844100Y+6747900D03*
X-4098100Y+6747900D03*
X-4352100Y+6747900D03*
X-4606100Y+6747900D03*
X-4860100Y+6747900D03*
X-5114100Y+6747900D03*
X-5368100Y+6747900D03*
X-5368100Y+5223900D03*
X-5114100Y+5223900D03*
X-4860100Y+5223900D03*
X-4606100Y+5223900D03*
X-4352100Y+5223900D03*
X-4098100Y+5223900D03*
X-3844100Y+5223900D03*
X-3590100Y+5223900D03*
X-3336100Y+5223900D03*
X-3082100Y+5223900D03*
X-2828100Y+5223900D03*
X-2574100Y+5223900D03*
X-2320100Y+5223900D03*
X-2066100Y+5223900D03*
X-1812100Y+5223900D03*
X-1558100Y+5223900D03*
X-1304100Y+5223900D03*
X-1050100Y+5223900D03*
X-796100Y+5223900D03*
X-542100Y+5223900D03*
X+7563900Y+6156100D03*
X+6263900Y+6156100D03*
X+7563900Y+5876100D03*
X+6263900Y+5876100D03*
D18*
X-6512100Y+5467900D03*
X-6512100Y+6477900D03*
D16*
X+7097900Y+6987900D03*
X+6081900Y+6987900D03*
X+7083900Y+5107900D03*
X+6067900Y+5107900D03*
M02*
